<svg width="168" height="168" viewBox="0 0 168 168" fill="none" xmlns="http://www.w3.org/2000/svg">
<g clip-path="url(#clip0_1189_185)">
<rect width="168" height="168" rx="32" fill="#499F75"/>
<path d="M110.813 63.3072C110.399 72.9151 111.393 83.0157 110.813 92.5415C110.151 104.12 101.042 114.139 89.6969 116.438C73.549 119.723 58.0636 108.226 57.1527 91.8845C57.5668 82.6051 56.6558 72.9972 57.1527 63.7999C57.7324 53.0423 64.5227 43.5165 74.7911 39.9033C75.5364 39.6569 77.1098 39.0821 77.8551 39C78.5176 39 79.2629 39.2464 79.6769 39.7391C80.4222 40.8066 79.6769 41.8742 79.4285 43.0238C78.6832 46.637 80.5878 50.2503 84.3142 51.1536C85.5564 51.4821 86.7985 51.1536 87.2126 52.5496C88.0407 55.3417 88.2063 57.3125 90.939 59.1191C93.5889 60.8436 94.7482 60.1867 97.5638 60.1045C99.3856 60.0224 99.4684 61.1721 100.876 62.0754C102.284 62.9787 103.94 63.3072 105.514 62.9787C107.501 62.5681 109.737 59.6939 110.813 63.3072Z" fill="#E9FFDB"/>
<path d="M119.724 93.0404C120.374 93.1211 121.023 93.3632 121.592 93.686C122.16 94.0089 122.647 94.4931 123.053 94.9774C123.459 95.5424 123.703 96.1073 123.865 96.753C124.028 97.3987 124.028 98.0444 123.947 98.6901C122.647 107.407 118.587 115.397 112.253 121.531C105.919 127.665 97.7986 131.62 89.0284 132.669V137.996C89.0284 139.287 88.4599 140.579 87.5666 141.547C86.6734 142.516 85.3741 143 83.9936 143C82.6131 143 81.395 142.435 80.4206 141.547C79.4461 140.659 78.9589 139.368 78.9589 137.996V132.669C70.1887 131.539 62.0682 127.665 55.7342 121.531C49.4002 115.397 45.3399 107.326 44.0406 98.6901C43.8782 97.3987 44.203 96.0266 45.0151 94.9774C45.8271 93.9282 47.0452 93.2018 48.3445 93.0404C49.6438 92.8789 51.0243 93.2018 52.08 94.0089C53.1356 94.816 53.8664 96.0266 54.0288 97.318C55.0845 104.501 58.6576 111.039 64.1795 115.72C69.7015 120.482 76.6852 123.065 83.9936 123.065C91.3021 123.065 98.2857 120.482 103.808 115.72C109.33 110.958 112.903 104.42 113.958 97.318C114.04 96.6723 114.283 96.0266 114.608 95.4617C114.933 94.8967 115.42 94.4124 115.907 94.0089C116.476 93.6053 117.044 93.3632 117.694 93.2018C118.343 93.0403 118.993 93.0403 119.643 93.121L119.724 93.0404Z" fill="#E9FFDB"/>
<rect x="40.7295" y="35.2908" width="5" height="18" rx="2.5" transform="rotate(-49.4934 40.7295 35.2908)" fill="#E9FFDB"/>
<rect x="56.6952" y="21.4617" width="5" height="18" rx="2.5" transform="rotate(-29.4934 56.6952 21.4617)" fill="#E9FFDB"/>
<rect x="31" y="51.8887" width="5" height="18" rx="2.5" transform="rotate(-64.2702 31 51.8887)" fill="#E9FFDB"/>
</g>
<defs>
<clipPath id="clip0_1189_185">
<rect width="168" height="168" rx="32" fill="white"/>
</clipPath>
</defs>
</svg>
