<svg preserveAspectRatio="none" width="100%" height="100%" overflow="visible" style="display: block;" viewBox="0 0 15.999 16" fill="none" xmlns="http://www.w3.org/2000/svg">
<path id="green tick" fill-rule="evenodd" clip-rule="evenodd" d="M7.99927 0C8.38442 0 8.76591 0.0771274 9.12088 0.226569C9.47582 0.37601 9.79756 0.594702 10.0667 0.870144L10.6883 1.50737L11.5785 1.49712C11.9637 1.49256 12.3462 1.56517 12.703 1.7105C13.0597 1.8558 13.3838 2.071 13.6562 2.34333C13.9286 2.61577 14.1442 2.94015 14.2895 3.29698C14.4348 3.65378 14.507 4.03629 14.5024 4.42152L14.4917 5.3112L15.1289 5.93329C15.4043 6.20245 15.623 6.52417 15.7725 6.87912C15.9219 7.23401 15.999 7.61518 15.999 8.00024C15.999 8.38539 15.9219 8.76689 15.7725 9.12186C15.623 9.47681 15.4043 9.79852 15.1289 10.0677L14.4926 10.6893L14.5024 11.5795C14.507 11.9647 14.4348 12.3472 14.2895 12.704C14.1442 13.0608 13.9286 13.3847 13.6562 13.6572C13.3837 13.9296 13.0598 14.1451 12.703 14.2905C12.3462 14.4358 11.9637 14.5084 11.5785 14.5039L10.6883 14.4926L10.0667 15.1299C9.79755 15.4053 9.47584 15.624 9.12088 15.7734C8.76591 15.9229 8.38442 16 7.99927 16C7.6142 16 7.23304 15.9228 6.87814 15.7734C6.52319 15.624 6.20147 15.4053 5.93231 15.1299L5.31022 14.4936L4.42055 14.5039C4.03531 14.5084 3.6528 14.4358 3.296 14.2905C2.93917 14.1451 2.6148 13.9296 2.34236 13.6572C2.07002 13.3848 1.85483 13.0607 1.70952 12.704C1.56419 12.3472 1.49158 11.9647 1.49614 11.5795L1.50737 10.6893L0.870144 10.0677C0.594696 9.79853 0.376011 9.4768 0.226569 9.12186C0.0771273 8.76689 0 8.38539 0 8.00024C2.61747e-05 7.61516 0.0771531 7.23403 0.226569 6.87912C0.376012 6.52414 0.594676 6.20246 0.870144 5.93329L1.50639 5.3112L1.49614 4.42152C1.49158 4.03627 1.5642 3.6538 1.70952 3.29698C1.85486 2.94015 2.06992 2.61577 2.34236 2.34333C2.61479 2.0709 2.93918 1.85583 3.296 1.7105C3.65281 1.56518 4.0353 1.49256 4.42055 1.49712L5.31022 1.50835L5.93231 0.870144C6.20149 0.594679 6.52317 0.37601 6.87814 0.226569C7.23305 0.0771559 7.61419 2.28711e-05 7.99927 0ZM10.0008 5.25016C9.76869 5.25019 9.54499 5.33094 9.36699 5.47673L9.29325 5.54314L7.0007 7.83618L6.2082 7.04318C6.11536 6.95038 6.00523 6.87664 5.88397 6.82638C5.76256 6.77609 5.63206 6.75021 5.50066 6.75021C5.3693 6.75022 5.23919 6.77611 5.11783 6.82638C4.99644 6.87667 4.88603 6.95027 4.79312 7.04318C4.7002 7.1361 4.6266 7.24651 4.57631 7.3679C4.52604 7.48926 4.50016 7.61937 4.50014 7.75072C4.50014 7.88213 4.52602 8.01263 4.57631 8.13404C4.62657 8.2553 4.70031 8.36543 4.79312 8.45827L6.29316 9.95831C6.38597 10.0513 6.49607 10.1252 6.61739 10.1756C6.73884 10.226 6.86921 10.2518 7.0007 10.2518C7.13219 10.2518 7.26256 10.226 7.38401 10.1756C7.50531 10.1253 7.61544 10.0512 7.70824 9.95831L10.7083 6.95822C10.896 6.77056 11.0018 6.51607 11.0018 6.25068C11.0018 5.98534 10.896 5.73077 10.7083 5.54314C10.5207 5.35557 10.2661 5.25016 10.0008 5.25016Z" fill="var(--fill-0, #499F75)"/>
</svg>
